<svg xmlns="http://www.w3.org/2000/svg" width="16.5" height="24" viewBox="0 0 16.5 24">
  <path id="Icon_awesome-microphone-alt" data-name="Icon awesome-microphone-alt" d="M15.75,9H15a.75.75,0,0,0-.75.75V12a6.007,6.007,0,0,1-6.6,5.971,6.182,6.182,0,0,1-5.4-6.238V9.75A.75.75,0,0,0,1.5,9H.75A.75.75,0,0,0,0,9.75v1.882a8.508,8.508,0,0,0,7.125,8.517v1.6H4.5a.75.75,0,0,0-.75.75v.75A.75.75,0,0,0,4.5,24H12a.75.75,0,0,0,.75-.75V22.5a.75.75,0,0,0-.75-.75H9.375V20.167A8.258,8.258,0,0,0,16.5,12V9.75A.75.75,0,0,0,15.75,9Zm-7.5,7.5a4.5,4.5,0,0,0,4.5-4.5h-4c-.276,0-.5-.168-.5-.375v-.75c0-.207.224-.375.5-.375h4V9h-4c-.276,0-.5-.168-.5-.375v-.75c0-.207.224-.375.5-.375h4V6h-4c-.276,0-.5-.168-.5-.375v-.75c0-.207.224-.375.5-.375h4a4.5,4.5,0,0,0-9,0V12A4.5,4.5,0,0,0,8.25,16.5Z" fill="#898989"/>
</svg>
