<svg xmlns="http://www.w3.org/2000/svg" width="16.65" height="16.65" viewBox="0 0 16.65 16.65">
  <path id="Icon_material-collections-bookmark" data-name="Icon material-collections-bookmark" d="M4.665,6.33H3V17.985A1.67,1.67,0,0,0,4.665,19.65H16.32V17.985H4.665ZM17.985,3H7.995A1.67,1.67,0,0,0,6.33,4.665v9.99A1.67,1.67,0,0,0,7.995,16.32h9.99a1.67,1.67,0,0,0,1.665-1.665V4.665A1.67,1.67,0,0,0,17.985,3Zm0,8.325L15.9,10.076l-2.081,1.249V4.665h4.162Z" transform="translate(-3 -3)" fill="#c5ffe6"/>
</svg>
