<svg id="Icon_feather-settings" data-name="Icon feather-settings" xmlns="http://www.w3.org/2000/svg" width="28.286" height="28.286" viewBox="0 0 28.286 28.286">
  <path id="Path_3" data-name="Path 3" d="M20.4,16.948A3.448,3.448,0,1,1,16.948,13.5,3.448,3.448,0,0,1,20.4,16.948Z" transform="translate(-2.805 -2.805)" fill="none" stroke="#898989" stroke-linecap="round" stroke-linejoin="round" stroke-width="3"/>
  <path id="Path_4" data-name="Path 4" d="M22.648,17.591a1.9,1.9,0,0,0,.379,2.092l.069.069A2.3,2.3,0,1,1,19.844,23l-.069-.069a1.912,1.912,0,0,0-3.241,1.356v.2a2.3,2.3,0,1,1-4.6,0v-.1a1.9,1.9,0,0,0-1.241-1.736,1.9,1.9,0,0,0-2.092.379l-.069.069a2.3,2.3,0,1,1-3.253-3.253l.069-.069a1.912,1.912,0,0,0-1.356-3.241H3.8a2.3,2.3,0,1,1,0-4.6h.1a1.9,1.9,0,0,0,1.736-1.241A1.9,1.9,0,0,0,5.258,8.6l-.069-.069A2.3,2.3,0,1,1,8.442,5.281l.069.069A1.9,1.9,0,0,0,10.6,5.73h.092a1.9,1.9,0,0,0,1.149-1.736V3.8a2.3,2.3,0,0,1,4.6,0v.1a1.912,1.912,0,0,0,3.241,1.356l.069-.069A2.3,2.3,0,1,1,23,8.442l-.069.069a1.9,1.9,0,0,0-.379,2.092v.092a1.9,1.9,0,0,0,1.736,1.149h.2a2.3,2.3,0,1,1,0,4.6h-.1a1.9,1.9,0,0,0-1.736,1.149Z" fill="none" stroke="#898989" stroke-linecap="round" stroke-linejoin="round" stroke-width="3"/>
</svg>
