<svg xmlns="http://www.w3.org/2000/svg" width="17.678" height="18" viewBox="0 0 17.678 18">
  <path id="Icon_metro-volume-medium" data-name="Icon metro-volume-medium" d="M17.025,19.275a.964.964,0,0,1-.682-1.646,6.758,6.758,0,0,0,0-9.546.964.964,0,0,1,1.364-1.364,8.678,8.678,0,0,1,0,12.273A.961.961,0,0,1,17.025,19.275ZM13.6,17.457a.964.964,0,0,1-.682-1.646,4.183,4.183,0,0,0,0-5.909.964.964,0,1,1,1.364-1.364,6.114,6.114,0,0,1,0,8.637A.961.961,0,0,1,13.6,17.457Zm-2.672,4.4a.643.643,0,0,1-.455-.188L5.519,16.713H3.214a.643.643,0,0,1-.643-.643V9.642A.643.643,0,0,1,3.214,9H5.519l4.955-4.955a.643.643,0,0,1,1.1.455V21.213a.643.643,0,0,1-.643.643Z" transform="translate(-2.571 -3.856)" fill="#898989"/>
</svg>
